<svg xmlns="http://www.w3.org/2000/svg" xmlns:xlink="http://www.w3.org/1999/xlink" width="500" zoomAndPan="magnify" viewBox="0 0 375 374.999991" height="500" preserveAspectRatio="xMidYMid meet" version="1.2"><defs><clipPath id="a28312834a"><path d="M 17.25 0 L 357.75 0 C 367.277344 0 375 7.722656 375 17.25 L 375 357.75 C 375 367.277344 367.277344 375 357.75 375 L 17.25 375 C 7.722656 375 0 367.277344 0 357.75 L 0 17.25 C 0 7.722656 7.722656 0 17.25 0 Z M 17.25 0 "/></clipPath><clipPath id="6dbbdea443"><path d="M 67.363281 53.746094 L 306.894531 53.746094 L 306.894531 321 L 67.363281 321 Z M 67.363281 53.746094 "/></clipPath></defs><g id="ac508b6125"><g clip-rule="nonzero" clip-path="url(#a28312834a)"><rect x="0" width="375" y="0" height="374.999991" style="fill:#fceb5b;fill-opacity:1;stroke:none;"/></g><g clip-rule="nonzero" clip-path="url(#6dbbdea443)"><path style=" stroke:none;fill-rule:nonzero;fill:#1e3602;fill-opacity:1;" d="M 206.972656 135.941406 L 138.113281 204.800781 C 137.710938 205.203125 137.289062 205.585938 136.847656 205.949219 C 136.40625 206.308594 135.949219 206.648438 135.476562 206.964844 C 135 207.28125 134.511719 207.574219 134.011719 207.84375 C 133.507812 208.113281 132.992188 208.355469 132.46875 208.574219 C 131.941406 208.792969 131.40625 208.984375 130.859375 209.148438 C 130.3125 209.316406 129.761719 209.453125 129.203125 209.5625 C 128.644531 209.675781 128.082031 209.757812 127.515625 209.816406 C 126.945312 209.871094 126.378906 209.898438 125.808594 209.898438 C 125.238281 209.898438 124.671875 209.871094 124.101562 209.816406 C 123.535156 209.757812 122.972656 209.675781 122.414062 209.5625 C 121.855469 209.453125 121.304688 209.316406 120.757812 209.148438 C 120.210938 208.984375 119.675781 208.792969 119.148438 208.574219 C 118.625 208.355469 118.109375 208.113281 117.605469 207.84375 C 117.105469 207.574219 116.617188 207.28125 116.140625 206.964844 C 115.667969 206.648438 115.210938 206.308594 114.769531 205.949219 C 114.328125 205.585938 113.90625 205.203125 113.503906 204.800781 C 113.101562 204.398438 112.71875 203.976562 112.359375 203.535156 C 111.996094 203.097656 111.65625 202.640625 111.339844 202.164062 C 111.023438 201.691406 110.730469 201.203125 110.464844 200.699219 C 110.195312 200.199219 109.949219 199.683594 109.734375 199.15625 C 109.515625 198.628906 109.324219 198.09375 109.15625 197.550781 C 108.992188 197.003906 108.855469 196.453125 108.742188 195.894531 C 108.632812 195.335938 108.546875 194.769531 108.492188 194.203125 C 108.4375 193.636719 108.410156 193.070312 108.410156 192.5 C 108.410156 191.929688 108.4375 191.359375 108.492188 190.792969 C 108.546875 190.226562 108.632812 189.664062 108.742188 189.105469 C 108.855469 188.546875 108.992188 187.992188 109.15625 187.449219 C 109.324219 186.902344 109.515625 186.367188 109.734375 185.839844 C 109.949219 185.3125 110.195312 184.800781 110.464844 184.296875 C 110.730469 183.792969 111.023438 183.304688 111.339844 182.832031 C 111.65625 182.359375 111.996094 181.902344 112.359375 181.460938 C 112.71875 181.019531 113.101562 180.597656 113.503906 180.195312 L 182.386719 111.390625 L 212.367188 53.746094 L 153.386719 82.394531 L 84.476562 151.164062 C 61.683594 173.957031 61.683594 211.039062 84.476562 233.835938 C 107.265625 256.628906 144.351562 256.625 167.144531 233.835938 L 236.007812 164.972656 C 236.410156 164.566406 236.835938 164.183594 237.277344 163.820312 C 237.71875 163.457031 238.179688 163.113281 238.65625 162.796875 C 239.132812 162.476562 239.621094 162.183594 240.128906 161.914062 C 240.632812 161.644531 241.148438 161.398438 241.679688 161.179688 C 242.207031 160.960938 242.746094 160.765625 243.292969 160.601562 C 243.839844 160.433594 244.394531 160.292969 244.957031 160.183594 C 245.519531 160.070312 246.085938 159.984375 246.65625 159.929688 C 247.226562 159.875 247.796875 159.84375 248.371094 159.84375 C 248.941406 159.84375 249.511719 159.871094 250.082031 159.929688 C 250.652344 159.984375 251.21875 160.070312 251.78125 160.179688 C 252.34375 160.292969 252.898438 160.429688 253.445312 160.597656 C 253.992188 160.761719 254.53125 160.957031 255.0625 161.175781 C 255.589844 161.394531 256.109375 161.636719 256.613281 161.90625 C 257.117188 162.179688 257.609375 162.472656 258.085938 162.789062 C 258.5625 163.109375 259.019531 163.449219 259.464844 163.8125 C 259.90625 164.175781 260.328125 164.558594 260.734375 164.964844 C 261.140625 165.371094 261.523438 165.792969 261.886719 166.234375 C 262.25 166.679688 262.589844 167.136719 262.910156 167.613281 C 263.226562 168.089844 263.523438 168.582031 263.792969 169.085938 C 264.0625 169.589844 264.304688 170.109375 264.527344 170.636719 C 264.746094 171.167969 264.9375 171.707031 265.101562 172.253906 C 265.269531 172.800781 265.410156 173.355469 265.519531 173.917969 C 265.632812 174.480469 265.714844 175.046875 265.773438 175.617188 C 265.828125 176.183594 265.855469 176.757812 265.855469 177.328125 C 265.855469 177.902344 265.828125 178.472656 265.769531 179.042969 C 265.714844 179.613281 265.628906 180.179688 265.519531 180.742188 C 265.40625 181.300781 265.269531 181.855469 265.101562 182.40625 C 264.933594 182.953125 264.742188 183.492188 264.523438 184.019531 C 264.304688 184.550781 264.058594 185.066406 263.789062 185.570312 C 263.519531 186.078125 263.222656 186.566406 262.90625 187.042969 C 262.585938 187.519531 262.246094 187.980469 261.882812 188.421875 C 261.519531 188.863281 261.136719 189.289062 260.730469 189.691406 L 190.550781 259.871094 L 190.550781 259.859375 L 180.546875 269.863281 L 165.039062 285.355469 C 164.5625 285.832031 164.113281 286.328125 163.6875 286.847656 C 163.257812 287.371094 162.859375 287.910156 162.484375 288.46875 C 162.113281 289.03125 161.765625 289.605469 161.449219 290.199219 C 161.132812 290.792969 160.847656 291.402344 160.589844 292.023438 C 160.332031 292.644531 160.105469 293.28125 159.910156 293.921875 C 159.714844 294.566406 159.554688 295.21875 159.421875 295.878906 C 159.292969 296.539062 159.195312 297.207031 159.128906 297.875 C 159.0625 298.546875 159.03125 299.21875 159.03125 299.890625 C 159.03125 300.5625 159.066406 301.234375 159.132812 301.902344 C 159.199219 302.574219 159.296875 303.238281 159.429688 303.898438 C 159.5625 304.558594 159.726562 305.210938 159.921875 305.855469 C 160.117188 306.5 160.34375 307.132812 160.601562 307.753906 C 160.859375 308.375 161.148438 308.980469 161.464844 309.574219 C 161.785156 310.167969 162.128906 310.746094 162.503906 311.304688 C 162.878906 311.863281 163.28125 312.402344 163.707031 312.921875 C 164.132812 313.441406 164.585938 313.941406 165.0625 314.417969 C 165.539062 314.890625 166.035156 315.34375 166.558594 315.769531 C 167.078125 316.195312 167.617188 316.597656 168.175781 316.972656 C 168.734375 317.34375 169.3125 317.691406 169.90625 318.007812 C 170.5 318.324219 171.105469 318.613281 171.730469 318.867188 C 172.351562 319.125 172.984375 319.351562 173.628906 319.546875 C 174.269531 319.742188 174.921875 319.90625 175.582031 320.039062 C 176.242188 320.167969 176.90625 320.269531 177.578125 320.332031 C 178.246094 320.398438 178.917969 320.433594 179.589844 320.433594 C 180.265625 320.433594 180.933594 320.398438 181.605469 320.332031 C 182.273438 320.269531 182.9375 320.167969 183.597656 320.039062 C 184.257812 319.90625 184.910156 319.742188 185.554688 319.546875 C 186.199219 319.351562 186.832031 319.125 187.453125 318.867188 C 188.074219 318.613281 188.683594 318.324219 189.277344 318.007812 C 189.871094 317.691406 190.445312 317.34375 191.003906 316.972656 C 191.566406 316.597656 192.105469 316.195312 192.625 315.769531 C 193.144531 315.34375 193.644531 314.890625 194.121094 314.417969 L 209.625 298.910156 L 219.625 288.910156 L 289.757812 218.726562 C 312.582031 195.902344 312.582031 158.761719 289.757812 135.941406 C 266.9375 113.117188 229.796875 113.117188 206.972656 135.941406 Z M 156.898438 94.460938 L 157.011719 83.015625 L 199.335938 62.441406 L 203.347656 66.457031 L 181.832031 107.828125 L 168.675781 106.242188 L 169.421875 95.414062 Z M 216.578125 288.917969 L 209.597656 295.894531 L 183.550781 269.855469 L 190.53125 262.875 Z M 216.578125 288.917969 "/></g></g></svg>